<?xml version="1.0" encoding="UTF-8"?>
<svg width="150" height="150" xmlns="http://www.w3.org/2000/svg" xmlns:svg="http://www.w3.org/2000/svg" xmlns:xlink="http://www.w3.org/1999/xlink">
 <defs>
  <linearGradient id="svg_20">
   <stop stop-color="#ffffff" stop-opacity="0.175" offset="0" id="svg_25"/>
   <stop stop-color="#ffffff" stop-opacity="0.375" offset="1" id="svg_24"/>
  </linearGradient>
  <linearGradient id="svg_21">
   <stop stop-color="#000000" stop-opacity="0.408333" offset="0" id="svg_23"/>
   <stop stop-color="#000000" stop-opacity="0" offset="1" id="svg_22"/>
  </linearGradient>
  <linearGradient y2="0.602273" y1="0.511364" xlink:href="#svg_21" x2="0.411765" x1="0.485294" id="svg_17"/>
  <linearGradient y2="1.096491" y1="0.122807" xlink:href="#svg_20" x2="0.327206" x1="0.507353" id="svg_15"/>
  <linearGradient xlink:href="#svg_20" id="svg_13"/>
  <symbol id="svg_26" xmlns:xlink="http://www.w3.org/1999/xlink" xmlns="http://www.w3.org/2000/svg" height="533.333333" width="533.333333">

   <g>
    <title>Layer 1</title>
    <path fill="#ffffff" fill-rule="evenodd" stroke="#000000" stroke-width="10" stroke-linejoin="round" id="svg_19" d="m96.858368,198.902649c2.913521,-12.972153 5.827034,-102.335815 32.048752,-100.894463c93.232727,2.882706 189.378983,-93.687713 259.303543,121.073357c215.600677,100.89447 14.991333,181.970367 -155.69136,174.763641c-168.657623,-7.060974 -312.65744,-128.640442 -135.660904,-194.942535l-0.000015,0l-0.000015,0z"/>
    <path fill-rule="evenodd" stroke="#000000" stroke-width="5" id="svg_18" d="m89.488083,230.729645c107.800339,67.743439 285.525253,25.944275 292.809097,-7.206757c10.197327,11.530807 0,43.240479 0,43.240479c-46.616394,60.536682 -272.414413,47.564545 -297.179367,4.324066c-2.913521,-11.530823 2.913528,-36.033737 4.3703,-40.357788l-0.000031,0z"/>
    <path fill="url(#svg_17)" fill-rule="evenodd" stroke-width="1.0000000pt" id="svg_16" d="m130.277405,122.628433c27.678467,-24.502945 148.589661,10.089447 164.614044,28.826981c5.827057,31.709702 -148.589676,7.206757 -164.614044,-28.826981z"/>
    <path fill="url(#svg_15)" fill-rule="evenodd" stroke-width="1.0000000pt" id="svg_14" d="m130.277405,158.66217c13.110855,30.268341 64.097519,100.89444 150.046448,33.151031c-71.381317,2.882706 -101.973328,-5.765396 -150.046448,-33.151031z"/>
    <path fill="url(#svg_13)" fill-rule="evenodd" stroke-width="1.0000000pt" id="svg_12" d="m160.869385,99.566841c18.937912,8.648102 138.392334,41.799126 151.503204,31.709694c14.567596,-5.765404 11.654114,-8.648102 4.3703,-10.089455c-11.654114,7.206749 -32.048767,11.5308 -155.873505,-21.620239z"/>
    <path fill="#ffffff" fill-opacity="0.316667" fill-rule="evenodd" stroke="#000000" stroke-width="1.8783400pt" id="svg_11" d="m106.969223,246.584488c17.48114,8.648087 71.381302,20.178879 91.77597,21.620255c14.567612,10.089417 7.283813,25.944275 1.456772,37.475067c-39.332565,0 -84.492172,-10.089447 -96.146263,-23.061615c-7.283813,-12.972107 -4.3703,-23.061584 2.913521,-36.033707z"/>
   </g>
  </symbol>
 </defs>
 <g>
  <title>Layer 1</title>
  <g id="svg_1">
   <polygon id="svg_2" points="108.10000610351562,61.69999694824219 147.1999969482422,84.30000305175781 147.1999969482422,39.099998474121094 " fill="#00AEEF"/>
   <polygon id="svg_3" points="90.5,6.400001525878906 51.399993896484375,29 108.10000610351562,61.69999694824219 147.1999969482422,39.099998474121094 " fill="#005984"/>
   <polygon id="svg_4" points="42.100006103515625,48 3,25.400001525878906 3,70.5999984741211 " fill="#FF9E16"/>
   <polygon id="svg_5" points="59.69999694824219,103.30000305175781 98.80000305175781,80.80000305175781 42.100006103515625,48 3,70.5999984741211 " fill="#FFD457"/>
   <polygon id="svg_6" points="108.10000610351562,61.69999694824219 147.1999969482422,84.19999694824219 108.10000610351562,106.80000305175781 " fill="#718F40"/>
   <polygon id="svg_7" points="42.100006103515625,48 3,25.5 42.100006103515625,2.9000015258789062 " fill="#718F40"/>
  </g>
  <path transform="rotate(9.46232, 120.5, 135.498)" id="svg_9" d="m95.191048,154.881073c0,0 -1.770729,-15.235428 16.37915,-19.413895c18.149864,-4.242767 35.193047,-8.999825 32.370964,-19.349617c0,0 7.525543,13.499733 -7.248871,21.21386c-14.719124,7.649841 -38.513153,-1.157135 -41.501244,17.549652z" fill="#00ff7f"/>
  <text font-weight="bold" transform="matrix(2.15585, 0, 0, 2.01607, 356.157, 17.0583)" xml:space="preserve" text-anchor="middle" font-family="Serif" font-size="11" id="svg_10" y="54.435813" x="-130.157356" stroke-linecap="null" stroke-linejoin="null" stroke-dasharray="null" stroke-width="0" fill="#007fff">RajWhiteHat</text>
  <use x="-447.246937" y="645.663586" transform="rotate(-24.6003, 11.7694, 138.43) matrix(0.0467736, 0, 0, 0.0439462, 41.8151, 69.05)" xlink:href="#svg_26" id="svg_28"/>
 </g>
</svg>